  <svg width="24" height="24" viewBox="0 0 24 24" fill="none" xmlns="http://www.w3.org/2000/svg">
    <path d="M20.2834 12.0996C20.2834 11.4756 20.2242 10.8766 20.1121 10.2971H12.2036V13.2551H16.7487C16.5533 14.2454 15.9725 15.0643 15.1092 15.618V17.8209H17.6544C19.1896 16.4104 20.2834 14.4579 20.2834 12.0996Z" fill="#4285F4"/>
    <path d="M12.2036 19.9996C14.3551 19.9996 16.1591 19.2366 17.6544 17.8208L15.1092 15.618C14.3265 16.1684 13.3474 16.4996 12.2036 16.4996C9.95533 16.4996 8.04989 14.9578 7.39615 12.8929H4.75741V15.1674C6.24626 18.0446 8.99835 19.9996 12.2036 19.9996Z" fill="#34A853"/>
    <path d="M7.39624 12.8929C7.21212 12.3416 7.11006 11.7517 7.11006 11.1431C7.11006 10.5346 7.21807 9.94467 7.39624 9.39341V7.11877H4.7575C4.19222 8.3338 3.87646 9.7022 3.87646 11.1431C3.87646 12.584 4.19222 13.9524 4.7575 15.1674L7.39624 12.8929Z" fill="#FBBC05"/>
    <path d="M12.2036 5.78669C13.4705 5.78669 14.6057 6.23669 15.5019 7.07871L17.7446 4.87783C16.156 3.41008 14.3551 2.5 12.2036 2.5C8.99835 2.5 6.24626 4.45501 4.75741 7.31118L7.39615 9.58585C8.04989 7.52093 9.95533 5.78669 12.2036 5.78669Z" fill="#EA4335"/>
  </svg>